<?xml version="1.0" standalone="no"?>
<!DOCTYPE svg PUBLIC "-//W3C//DTD SVG 20010904//EN"
 "http://www.w3.org/TR/2001/REC-SVG-20010904/DTD/svg10.dtd">
<svg version="1.0" xmlns="http://www.w3.org/2000/svg"
 width="2000.000000pt" height="1648.000000pt" viewBox="0 0 2000.000000 1648.000000"
 preserveAspectRatio="xMidYMid meet">

<g transform="translate(0.000000,1648.000000) scale(0.100000,-0.100000)"
fill="#000000" stroke="none">
<path d="M13085 16450 c-439 -103 -840 -258 -1210 -468 -136 -77 -444 -286
-570 -387 -925 -743 -1502 -1794 -1605 -2920 -24 -269 -8 -750 35 -1061 9 -59
14 -108 13 -109 -3 -3 -6 -3 -388 60 -1825 302 -3418 842 -4776 1620 -1093
627 -2041 1398 -2932 2387 -149 165 -188 197 -252 205 -87 12 -152 -46 -269
-244 -420 -709 -559 -1639 -386 -2591 89 -489 264 -995 482 -1396 248 -454
500 -764 940 -1154 35 -31 61 -57 59 -60 -7 -6 -218 36 -391 78 -281 69 -555
167 -810 290 -153 73 -189 85 -235 75 -92 -20 -124 -100 -122 -310 2 -406 114
-927 299 -1395 219 -553 540 -1038 977 -1476 423 -422 844 -702 1378 -914 149
-59 184 -77 170 -85 -27 -16 -695 -12 -932 5 -258 19 -297 19 -340 -3 -93 -47
-100 -134 -26 -327 202 -522 506 -1007 871 -1388 493 -515 1123 -891 1962
-1172 387 -129 476 -151 718 -179 l70 -8 -86 -84 c-310 -304 -874 -582 -1919
-947 -531 -185 -833 -270 -1275 -357 -708 -140 -1492 -188 -2120 -129 -248 23
-337 27 -375 17 -34 -9 -35 -11 -38 -63 -3 -54 -3 -54 17 -36 30 27 90 30 236
12 253 -30 476 -39 869 -33 550 8 926 49 1466 158 500 102 1085 281 1790 549
660 251 1148 516 1401 761 56 56 179 200 179 212 0 6 -123 24 -294 43 -130 14
-177 25 -374 85 -403 124 -725 250 -1023 399 -900 451 -1534 1115 -1926 2020
-91 207 -125 310 -118 347 10 57 22 58 327 39 312 -20 757 -22 933 -6 66 6
172 20 235 31 63 11 130 23 147 26 47 8 41 20 -15 28 -194 29 -695 227 -975
386 -565 321 -1040 766 -1412 1324 -285 427 -472 846 -595 1330 -71 279 -121
636 -119 857 0 128 12 176 50 197 24 14 33 11 152 -47 315 -154 654 -270 1011
-346 182 -40 419 -76 486 -75 l45 0 -44 37 c-247 206 -520 460 -640 595 -586
661 -959 1573 -1041 2542 -13 155 -13 539 0 680 43 472 149 861 336 1235 99
197 196 346 242 373 27 16 37 17 61 8 27 -12 97 -80 196 -191 270 -305 712
-743 1035 -1026 1103 -969 2345 -1702 3785 -2234 981 -363 2103 -640 3346
-826 39 -6 69 13 69 44 0 10 -9 80 -19 157 -11 77 -25 199 -33 270 -17 171
-17 694 1 845 106 935 526 1798 1205 2475 706 705 1610 1136 2611 1247 180 20
661 17 850 -6 676 -79 1281 -305 1845 -687 236 -160 398 -294 559 -463 40 -43
84 -82 98 -87 46 -17 99 -9 302 46 723 196 1343 431 1981 752 146 73 275 133
288 133 37 0 62 -18 62 -46 0 -14 -20 -83 -44 -154 -140 -405 -350 -772 -670
-1170 -344 -427 -603 -677 -826 -795 -102 -54 -113 -55 240 15 404 81 744 171
1080 285 197 67 469 174 563 221 66 34 67 35 67 74 0 22 -4 40 -8 40 -5 0 -60
-23 -123 -51 -277 -125 -628 -248 -958 -339 -155 -42 -518 -130 -539 -130 -4
0 70 78 164 172 245 248 533 601 696 853 182 280 299 523 407 843 45 131 46
152 11 209 -25 42 -101 67 -156 52 -20 -6 -170 -77 -333 -158 -533 -264 -1033
-463 -1591 -632 -214 -65 -528 -149 -556 -149 -16 0 -65 42 -161 138 -150 150
-298 269 -523 421 -409 277 -832 465 -1341 598 l-144 38 -820 2 -820 2 -120
-29z"/>
<path d="M19958 14250 c-38 -77 -171 -255 -385 -516 -419 -513 -902 -978
-1319 -1273 -106 -74 -158 -124 -176 -170 -6 -15 -14 -195 -18 -431 -34 -1646
-265 -3094 -707 -4435 -720 -2183 -1960 -3912 -3748 -5225 -1810 -1329 -4097
-2098 -6510 -2189 -170 -6 -97 -8 386 -9 584 -2 599 -2 790 23 1640 214 3203
748 4549 1555 1297 777 2402 1805 3235 3010 1201 1738 1900 3945 2060 6505 19
304 35 758 35 987 l0 177 32 36 c17 20 77 69 132 108 434 307 938 800 1375
1342 76 94 177 222 225 286 l87 117 -3 88 -3 89 -37 -75z"/>
<path d="M1 1834 l-1 -70 93 -61 c429 -281 1053 -604 1612 -838 974 -406 2058
-689 3214 -840 191 -25 206 -25 800 -23 496 1 567 3 391 9 -1190 44 -2460 267
-3537 620 -826 271 -1646 650 -2343 1084 -156 97 -210 140 -223 175 -3 8 -6
-17 -6 -56z"/>
</g>
</svg>
