<?xml version="1.0" standalone="no"?>
<!DOCTYPE svg PUBLIC "-//W3C//DTD SVG 20010904//EN"
 "http://www.w3.org/TR/2001/REC-SVG-20010904/DTD/svg10.dtd">
<svg version="1.0" xmlns="http://www.w3.org/2000/svg"
 width="512.000000pt" height="512.000000pt" viewBox="0 0 512.000000 512.000000"
 preserveAspectRatio="xMidYMid meet">

<g transform="translate(0.000000,512.000000) scale(0.100000,-0.100000)"
fill="#000000" stroke="none">
<path d="M3370 4649 c-237 -27 -483 -151 -657 -330 -91 -94 -138 -161 -199
-284 -76 -155 -105 -272 -111 -458 l-6 -148 -56 6 c-59 7 -273 46 -376 69 -77
17 -113 5 -138 -46 -21 -42 -16 -76 17 -111 34 -36 282 -91 526 -117 163 -17
187 -14 222 21 l31 30 -9 82 c-5 45 -8 141 -8 212 1 109 6 144 28 218 110 368
407 618 781 656 165 17 324 -10 472 -79 98 -46 155 -84 240 -162 36 -32 77
-61 90 -65 35 -8 163 20 307 68 65 22 121 37 123 35 9 -8 -154 -163 -214 -204
-34 -23 -69 -52 -77 -64 -26 -36 -20 -85 13 -119 37 -36 84 -38 233 -9 57 11
105 20 108 20 11 0 -84 -89 -165 -155 -137 -110 -126 -83 -130 -307 -9 -450
-99 -823 -295 -1223 -141 -288 -292 -498 -529 -736 -296 -296 -613 -496 -1001
-630 -255 -88 -484 -132 -777 -149 -415 -24 -803 39 -1193 193 l-105 41 45 7
c25 4 83 12 130 19 216 32 472 120 673 232 189 105 313 197 325 241 19 71 -26
122 -116 131 -266 27 -454 114 -617 287 -67 71 -141 176 -132 186 3 3 52 9
109 14 205 17 273 49 273 129 0 57 -32 85 -125 111 -100 27 -240 96 -323 159
-146 111 -283 316 -326 490 -11 41 -18 76 -17 77 0 1 39 -10 86 -23 52 -15
124 -27 186 -31 100 -6 101 -6 133 23 33 30 42 65 27 111 -4 12 -45 52 -92 88
-177 139 -298 345 -334 569 -21 128 2 386 40 446 7 12 32 -8 122 -96 150 -146
357 -315 445 -362 39 -21 73 -14 109 22 65 65 44 112 -87 207 -161 115 -323
264 -489 447 -70 77 -77 82 -115 82 -23 0 -49 -8 -62 -18 -24 -19 -86 -139
-115 -222 -77 -220 -77 -511 -2 -722 31 -87 85 -197 126 -255 16 -24 26 -43
23 -43 -3 0 -23 9 -45 20 -58 29 -105 26 -141 -9 -26 -27 -29 -36 -29 -98 0
-154 53 -355 132 -503 59 -111 129 -200 236 -300 86 -81 93 -90 68 -90 -32 0
-72 -37 -82 -75 -13 -52 83 -260 175 -380 132 -172 334 -320 521 -380 30 -10
59 -20 63 -22 28 -16 -281 -152 -451 -199 -203 -55 -307 -68 -574 -68 -233 -1
-238 -1 -260 -24 -27 -26 -32 -98 -9 -126 8 -9 62 -45 120 -80 352 -212 750
-344 1196 -397 131 -16 523 -16 650 0 510 62 914 204 1292 453 801 528 1302
1434 1340 2426 l6 162 34 26 c117 89 288 269 399 419 50 69 59 86 59 123 0 36
-5 48 -28 68 -39 33 -82 31 -189 -12 -49 -20 -91 -34 -93 -32 -2 2 15 30 37
63 61 90 131 242 136 298 4 42 1 52 -24 78 -41 43 -85 40 -187 -15 -124 -67
-229 -111 -365 -152 l-123 -37 -47 40 c-174 146 -385 238 -605 262 -108 12
-149 12 -257 0z"/>
<path d="M1443 3673 c-35 -7 -73 -59 -73 -100 0 -25 8 -43 29 -64 43 -42 100
-43 144 -1 70 66 -1 183 -100 165z"/>
<path d="M3648 2212 c-26 -24 -31 -36 -30 -67 2 -51 24 -82 70 -96 50 -15 97
8 117 55 42 100 -75 180 -157 108z"/>
<path d="M3333 1811 c-143 -149 -290 -271 -437 -363 -111 -71 -126 -87 -126
-143 0 -36 5 -48 31 -69 53 -45 87 -37 224 52 161 105 256 183 403 331 184
183 203 217 165 281 -19 33 -52 50 -95 50 -28 0 -49 -18 -165 -139z"/>
</g>
</svg>
