<?xml version="1.0" standalone="no"?>
<!DOCTYPE svg PUBLIC "-//W3C//DTD SVG 20010904//EN"
 "http://www.w3.org/TR/2001/REC-SVG-20010904/DTD/svg10.dtd">
<svg version="1.0" xmlns="http://www.w3.org/2000/svg"
 width="512.000000pt" height="512.000000pt" viewBox="0 0 512.000000 512.000000"
 preserveAspectRatio="xMidYMid meet">

<g transform="translate(0.000000,512.000000) scale(0.100000,-0.100000)"
fill="#000000" stroke="none">
<path d="M5112 3707 c-3 -61 -31 -185 -62 -279 -62 -186 -159 -340 -309 -489
-239 -240 -512 -359 -866 -377 l-125 -7 -54 -132 c-203 -500 -601 -892 -1070
-1054 l-69 -24 6 -125 c10 -197 50 -349 140 -524 177 -347 497 -589 890 -673
59 -13 125 -18 232 -17 174 0 259 13 405 60 204 66 354 157 510 314 152 152
245 301 311 497 65 197 62 133 66 1413 3 1042 2 1528 -5 1417z"/>
</g>
</svg>
